<svg width="1200" height="800" viewBox="0 0 1200 800" fill="none" xmlns="http://www.w3.org/2000/svg">
  <defs>
    <linearGradient id="bg3" x1="0" y1="0" x2="1200" y2="800" gradientUnits="userSpaceOnUse">
      <stop stop-color="#0A0615"/>
      <stop offset="1" stop-color="#3A1458"/>
    </linearGradient>
    <linearGradient id="card3" x1="0" y1="0" x2="1" y2="1">
      <stop stop-color="#FFFFFF" stop-opacity="0.10"/>
      <stop offset="1" stop-color="#FFFFFF" stop-opacity="0.04"/>
    </linearGradient>
  </defs>

  <rect width="1200" height="800" rx="48" fill="url(#bg3)"/>
  <rect x="120" y="120" width="960" height="560" rx="32" fill="url(#card3)" stroke="#FFFFFF" stroke-opacity="0.10"/>

  <rect x="160" y="170" width="260" height="18" rx="9" fill="#FFFFFF" fill-opacity="0.70"/>
  <rect x="160" y="205" width="520" height="12" rx="6" fill="#FFFFFF" fill-opacity="0.24"/>

  <g>
    <rect x="160" y="260" width="880" height="84" rx="24" fill="#FFFFFF" fill-opacity="0.06" stroke="#FFFFFF" stroke-opacity="0.10"/>
    <rect x="160" y="364" width="880" height="84" rx="24" fill="#FFFFFF" fill-opacity="0.06" stroke="#FFFFFF" stroke-opacity="0.10"/>
    <rect x="160" y="468" width="880" height="84" rx="24" fill="#FFFFFF" fill-opacity="0.06" stroke="#FFFFFF" stroke-opacity="0.10"/>

    <rect x="200" y="294" width="260" height="14" rx="7" fill="#FFFFFF" fill-opacity="0.55"/>
    <rect x="200" y="398" width="240" height="14" rx="7" fill="#FFFFFF" fill-opacity="0.55"/>
    <rect x="200" y="502" width="220" height="14" rx="7" fill="#FFFFFF" fill-opacity="0.55"/>

    <rect x="890" y="288" width="110" height="26" rx="13" fill="#FFFFFF" fill-opacity="0.16"/>
    <circle cx="975" cy="301" r="10" fill="#FFFFFF" fill-opacity="0.55"/>

    <rect x="900" y="392" width="100" height="26" rx="13" fill="#FFFFFF" fill-opacity="0.16"/>
    <circle cx="920" cy="405" r="10" fill="#FFFFFF" fill-opacity="0.35"/>

    <rect x="900" y="496" width="100" height="26" rx="13" fill="#FFFFFF" fill-opacity="0.16"/>
    <circle cx="980" cy="509" r="10" fill="#FFFFFF" fill-opacity="0.55"/>
  </g>

  <text x="160" y="740" font-family="ui-sans-serif, system-ui, -apple-system, Segoe UI, Roboto, Helvetica, Arial" font-size="20" fill="#FFFFFF" fill-opacity="0.55">
    Placeholder screenshot  Settings
  </text>
</svg>
