<svg width="1200" height="800" viewBox="0 0 1200 800" fill="none" xmlns="http://www.w3.org/2000/svg">
  <defs>
    <linearGradient id="bg2" x1="0" y1="0" x2="1200" y2="800" gradientUnits="userSpaceOnUse">
      <stop stop-color="#060A1F"/>
      <stop offset="1" stop-color="#0B3A5A"/>
    </linearGradient>
    <linearGradient id="card2" x1="0" y1="0" x2="1" y2="1">
      <stop stop-color="#FFFFFF" stop-opacity="0.10"/>
      <stop offset="1" stop-color="#FFFFFF" stop-opacity="0.04"/>
    </linearGradient>
  </defs>

  <rect width="1200" height="800" rx="48" fill="url(#bg2)"/>

  <rect x="110" y="120" width="980" height="560" rx="32" fill="url(#card2)" stroke="#FFFFFF" stroke-opacity="0.10"/>

  <rect x="150" y="170" width="320" height="18" rx="9" fill="#FFFFFF" fill-opacity="0.70"/>
  <rect x="150" y="205" width="520" height="12" rx="6" fill="#FFFFFF" fill-opacity="0.25"/>

  <g>
    <rect x="150" y="260" width="900" height="380" rx="28" fill="#FFFFFF" fill-opacity="0.06" stroke="#FFFFFF" stroke-opacity="0.10"/>

    <g opacity="0.95">
      <rect x="190" y="305" width="240" height="120" rx="24" fill="#FFFFFF" fill-opacity="0.08" stroke="#FFFFFF" stroke-opacity="0.12"/>
      <rect x="470" y="305" width="240" height="120" rx="24" fill="#FFFFFF" fill-opacity="0.08" stroke="#FFFFFF" stroke-opacity="0.12"/>
      <rect x="750" y="305" width="240" height="120" rx="24" fill="#FFFFFF" fill-opacity="0.08" stroke="#FFFFFF" stroke-opacity="0.12"/>

      <rect x="190" y="455" width="240" height="120" rx="24" fill="#FFFFFF" fill-opacity="0.08" stroke="#FFFFFF" stroke-opacity="0.12"/>
      <rect x="470" y="455" width="240" height="120" rx="24" fill="#FFFFFF" fill-opacity="0.08" stroke="#FFFFFF" stroke-opacity="0.12"/>
      <rect x="750" y="455" width="240" height="120" rx="24" fill="#FFFFFF" fill-opacity="0.08" stroke="#FFFFFF" stroke-opacity="0.12"/>
    </g>

    <g fill="#FFFFFF" fill-opacity="0.55" font-family="ui-sans-serif, system-ui, -apple-system, Segoe UI, Roboto, Helvetica, Arial" font-size="16">
      <text x="235" y="372">Aries</text>
      <text x="510" y="372">Taurus</text>
      <text x="792" y="372">Gemini</text>
      <text x="222" y="522">Cancer</text>
      <text x="510" y="522">Leo</text>
      <text x="785" y="522">Virgo</text>
    </g>
  </g>

  <text x="150" y="740" font-family="ui-sans-serif, system-ui, -apple-system, Segoe UI, Roboto, Helvetica, Arial" font-size="20" fill="#FFFFFF" fill-opacity="0.55">
    Placeholder screenshot  Zodiac selection
  </text>
</svg>
