<svg width="1200" height="800" viewBox="0 0 1200 800" fill="none" xmlns="http://www.w3.org/2000/svg">
  <defs>
    <linearGradient id="bg" x1="0" y1="0" x2="1200" y2="800" gradientUnits="userSpaceOnUse">
      <stop stop-color="#0B061F"/>
      <stop offset="1" stop-color="#2A0A4A"/>
    </linearGradient>
    <linearGradient id="card" x1="0" y1="0" x2="1" y2="1">
      <stop stop-color="#FFFFFF" stop-opacity="0.10"/>
      <stop offset="1" stop-color="#FFFFFF" stop-opacity="0.04"/>
    </linearGradient>
  </defs>

  <rect width="1200" height="800" rx="48" fill="url(#bg)"/>

  <g opacity="0.45">
    <circle cx="220" cy="190" r="2" fill="#FFFFFF"/>
    <circle cx="340" cy="120" r="1.5" fill="#FFFFFF"/>
    <circle cx="520" cy="160" r="1.2" fill="#FFFFFF"/>
    <circle cx="760" cy="120" r="1.6" fill="#FFFFFF"/>
    <circle cx="980" cy="180" r="1.4" fill="#FFFFFF"/>
    <circle cx="1040" cy="320" r="1.2" fill="#FFFFFF"/>
    <circle cx="860" cy="420" r="1.5" fill="#FFFFFF"/>
    <circle cx="620" cy="460" r="1.1" fill="#FFFFFF"/>
    <circle cx="420" cy="520" r="1.4" fill="#FFFFFF"/>
    <circle cx="260" cy="420" r="1.2" fill="#FFFFFF"/>
  </g>

  <rect x="100" y="110" width="1000" height="580" rx="32" fill="url(#card)" stroke="#FFFFFF" stroke-opacity="0.10"/>
  <rect x="140" y="160" width="260" height="18" rx="9" fill="#FFFFFF" fill-opacity="0.70"/>
  <rect x="140" y="200" width="460" height="12" rx="6" fill="#FFFFFF" fill-opacity="0.35"/>
  <rect x="140" y="225" width="420" height="12" rx="6" fill="#FFFFFF" fill-opacity="0.25"/>

  <rect x="140" y="290" width="920" height="140" rx="24" fill="#FFFFFF" fill-opacity="0.06" stroke="#FFFFFF" stroke-opacity="0.10"/>
  <rect x="170" y="325" width="240" height="14" rx="7" fill="#FFFFFF" fill-opacity="0.55"/>
  <rect x="170" y="355" width="740" height="10" rx="5" fill="#FFFFFF" fill-opacity="0.22"/>
  <rect x="170" y="377" width="700" height="10" rx="5" fill="#FFFFFF" fill-opacity="0.18"/>

  <rect x="140" y="460" width="440" height="190" rx="24" fill="#FFFFFF" fill-opacity="0.06" stroke="#FFFFFF" stroke-opacity="0.10"/>
  <rect x="620" y="460" width="440" height="190" rx="24" fill="#FFFFFF" fill-opacity="0.06" stroke="#FFFFFF" stroke-opacity="0.10"/>

  <rect x="170" y="500" width="200" height="14" rx="7" fill="#FFFFFF" fill-opacity="0.55"/>
  <rect x="170" y="530" width="360" height="10" rx="5" fill="#FFFFFF" fill-opacity="0.20"/>
  <rect x="170" y="552" width="330" height="10" rx="5" fill="#FFFFFF" fill-opacity="0.16"/>

  <rect x="650" y="500" width="220" height="14" rx="7" fill="#FFFFFF" fill-opacity="0.55"/>
  <rect x="650" y="530" width="360" height="10" rx="5" fill="#FFFFFF" fill-opacity="0.20"/>
  <rect x="650" y="552" width="330" height="10" rx="5" fill="#FFFFFF" fill-opacity="0.16"/>

  <text x="140" y="740" font-family="ui-sans-serif, system-ui, -apple-system, Segoe UI, Roboto, Helvetica, Arial" font-size="20" fill="#FFFFFF" fill-opacity="0.55">
    Placeholder screenshot  Daily horoscope
  </text>
</svg>
